<?xml version="1.0" encoding="UTF-8"?>
<svg width="24px" height="24px" viewBox="0 0 24 24" version="1.1" xmlns="http://www.w3.org/2000/svg" xmlns:xlink="http://www.w3.org/1999/xlink">
    <!-- Generator: Sketch 53 (72520) - https://sketchapp.com -->
    <title>Fold</title>
    <desc>Created with Sketch.</desc>
    <g id="Fold" stroke="none" stroke-width="1" fill="none" fill-rule="evenodd">
        <g id="Group">
            <g id="baseline-picture_in_picture_alt-24px">
                <path d="M23,19 L23,4.98 C23,3.88 22.1,3 21,3 L3,3 C1.9,3 1,3.88 1,4.98 L1,19 C1,20.1 1.9,21 3,21 L21,21 C22.1,21 23,20.1 23,19 Z M21,19.02 L3,19.02 L3,4.97 L21,4.97 L21,19.02 Z" id="Shape" fill="#617D8A" fill-rule="nonzero"></path>
                <g id="Group-8" transform="translate(16.200000, 12.000000) rotate(90.000000) translate(-16.200000, -12.000000) translate(9.200000, 11.000000)" fill="#617D8A" fill-rule="nonzero">
                    <polygon id="Path" transform="translate(1.000000, 1.000000) rotate(90.000000) translate(-1.000000, -1.000000) " points="-1.71261161e-13 2 2 2 2 -8.45157277e-15 -1.71261161e-13 -8.45157277e-15"></polygon>
                    <polygon id="Path" transform="translate(9.000000, 1.000000) rotate(90.000000) translate(-9.000000, -1.000000) " points="10 9.38138456e-15 8 9.38138456e-15 8 2 10 2"></polygon>
                    <polygon id="Path" transform="translate(5.000000, 1.000000) rotate(90.000000) translate(-5.000000, -1.000000) " points="4 2 6 2 6 -1.51545443e-14 4 -1.51545443e-14"></polygon>
                    <polygon id="Path" transform="translate(13.000000, 1.000000) rotate(90.000000) translate(-13.000000, -1.000000) " points="12 2 14 2 14 1.13908882e-13 12 1.13908882e-13"></polygon>
                </g>
                <polygon id="Path" points="0 0 24 0 24 24 0 24"></polygon>
            </g>
            <g id="Path-2" transform="translate(5.000000, 9.000000)" fill="#617D8A">
                <polygon id="Path" transform="translate(4.002479, 3.000000) rotate(180.000000) translate(-4.002479, -3.000000) " points="4.71924414 6 8.00495843 3 4.71924414 -5.19584376e-14 4.71924414 2 2.48689958e-14 2 2.48689958e-14 4 4.71924414 4"></polygon>
            </g>
        </g>
    </g>
</svg>