<?xml version="1.0" encoding="iso-8859-1"?>
<!-- Generator: Adobe Illustrator 18.0.0, SVG Export Plug-In . SVG Version: 6.00 Build 0)  -->
<!DOCTYPE svg PUBLIC "-//W3C//DTD SVG 1.0//EN" "http://www.w3.org/TR/2001/REC-SVG-20010904/DTD/svg10.dtd">
<svg version="1.0" id="Layer_1" xmlns="http://www.w3.org/2000/svg" xmlns:xlink="http://www.w3.org/1999/xlink" x="0px" y="0px"
	 viewBox="0 0 48 48" enable-background="new 0 0 48 48" xml:space="preserve">
<path fill="#617D8A" d="M23.996,5.808c-9.937,0-17.992,8.055-17.992,17.992s8.055,17.992,17.992,17.992S41.988,33.737,41.988,23.8
	S33.933,5.808,23.996,5.808z M35.927,26.005h-0.988c-0.289,1.445-0.859,2.787-1.648,3.971l0.701,0.701
	c0.858,0.858,0.858,2.261,0,3.119c-0.857,0.858-2.261,0.858-3.118,0l-0.702-0.702c-1.185,0.789-2.526,1.359-3.971,1.648v0.989
	c0,1.213-0.992,2.205-2.205,2.205c-1.212,0-2.205-0.992-2.205-2.205v-0.989c-1.445-0.289-2.786-0.86-3.971-1.648l-0.702,0.702
	c-0.858,0.858-2.261,0.858-3.119,0c-0.857-0.858-0.857-2.261,0-3.119l0.702-0.701c-0.789-1.185-1.36-2.527-1.649-3.971h-0.988
	c-1.213,0-2.205-0.992-2.205-2.205s0.993-2.205,2.205-2.205h0.988c0.289-1.445,0.86-2.787,1.649-3.971L14,16.922
	c-0.857-0.857-0.857-2.261,0-3.118c0.858-0.858,2.261-0.858,3.119,0l0.702,0.701c1.185-0.789,2.526-1.359,3.971-1.648v-0.989
	c0-1.213,0.993-2.205,2.205-2.205c1.213,0,2.205,0.992,2.205,2.205v0.989c1.445,0.289,2.786,0.86,3.971,1.648l0.702-0.701
	c0.858-0.858,2.261-0.858,3.118,0c0.858,0.858,0.858,2.261,0,3.118l-0.701,0.702c0.789,1.185,1.359,2.526,1.648,3.971h0.988
	c1.213,0,2.205,0.992,2.205,2.205S37.14,26.005,35.927,26.005z"/>
</svg>
