<svg width="40" height="40" viewBox="0 0 40 40" fill="none" xmlns="http://www.w3.org/2000/svg">
<rect width="40" height="40" rx="20" fill="#E0E0E0"/>
<path fill-rule="evenodd" clip-rule="evenodd" d="M24 15C24 17.2091 22.2091 19 20 19C17.7909 19 16 17.2091 16 15C16 12.7909 17.7909 11 20 11C22.2091 11 24 12.7909 24 15ZM26.0216 22.435L24 21.7027C21.4155 20.7666 18.5845 20.7666 16 21.7027L13.9784 22.435C12.7909 22.865 12 23.9927 12 25.2556V27C12 27.5523 12.4477 28 13 28H27C27.5523 28 28 27.5523 28 27V25.2556C28 23.9927 27.2091 22.865 26.0216 22.435Z" fill="#9E9E9E"/>
</svg>
