<svg width="24" height="24" viewBox="0 0 24 24" fill="none" xmlns="http://www.w3.org/2000/svg">
<g clip-path="url(#clip0_4:1314)">
<path fill-rule="evenodd" clip-rule="evenodd" d="M6.34315 17.799C9.46734 20.9232 14.5327 20.9232 17.6569 17.799C20.781 14.6748 20.781 9.60948 17.6569 6.48528C14.5327 3.36109 9.46734 3.36109 6.34315 6.48528C3.21895 9.60948 3.21895 14.6748 6.34315 17.799ZM4.92893 19.2132C8.83417 23.1184 15.1658 23.1184 19.0711 19.2132C20.549 17.7353 21.4676 15.9099 21.8269 14L23 14C23.5523 14 24 13.5523 24 13L24 11C24 10.4477 23.5523 10 23 10L21.7691 10C21.3748 8.19369 20.4755 6.47548 19.0711 5.07107C15.1658 1.16582 8.83418 1.16582 4.92893 5.07107C1.02369 8.97631 1.02369 15.308 4.92893 19.2132ZM22.2426 18L22.9497 18.7071C23.3402 19.0976 23.3402 19.7308 22.9497 20.1213L20.1213 22.9497C19.7308 23.3403 19.0976 23.3403 18.7071 22.9497L18 22.2426L22.2426 18Z" fill="#617D8A"/>
<path d="M14.9824 16H9.13476V14.8398L11.8945 11.8984C12.2734 11.4844 12.5527 11.123 12.7324 10.8145C12.916 10.5059 13.0078 10.2129 13.0078 9.93555C13.0078 9.55664 12.9121 9.25977 12.7207 9.04492C12.5293 8.82617 12.2559 8.7168 11.9004 8.7168C11.5176 8.7168 11.2148 8.84961 10.9922 9.11523C10.7734 9.37695 10.6641 9.72266 10.6641 10.1523H8.96484C8.96484 9.63281 9.08789 9.1582 9.33398 8.72852C9.58398 8.29883 9.93555 7.96289 10.3887 7.7207C10.8418 7.47461 11.3555 7.35156 11.9297 7.35156C12.8086 7.35156 13.4902 7.5625 13.9746 7.98438C14.4629 8.40625 14.707 9.00195 14.707 9.77148C14.707 10.1934 14.5977 10.623 14.3789 11.0605C14.1602 11.498 13.7852 12.0078 13.2539 12.5898L11.3145 14.6348H14.9824V16Z" fill="#617D8A"/>
</g>
<defs>
<clipPath id="clip0_4:1314">
<rect width="24" height="24" fill="white"/>
</clipPath>
</defs>
</svg>
