<svg width="24" height="24" viewBox="0 0 24 24" fill="none" xmlns="http://www.w3.org/2000/svg">
<path fill-rule="evenodd" clip-rule="evenodd" d="M18.4681 5.48447C18.5469 5.63737 18.6353 5.80887 18.75 6C18.75 6 21 10.5 21.0075 10.9312V12H13V17.2034C10.088 17.2146 6.75 17.25 6.75 17.25V18.75C6.75 18.75 6.75 20.25 5.25 20.25H4.5C3 20.25 3 18.75 3 18.75V10.9312C3 10.5 5.25 6 5.25 6C5.36352 5.81079 5.4515 5.64091 5.53001 5.48931C5.82404 4.92152 5.98531 4.61011 6.85875 4.5H17.1488C18.0173 4.60956 18.1775 4.92049 18.4681 5.48447ZM6.02618 13.5521C6.04066 14.382 6.72226 15.0402 7.55213 15.0257C8.382 15.0112 9.04021 14.3296 9.02572 13.4998C9.01124 12.6699 8.32965 12.0117 7.49977 12.0262C6.6699 12.0407 6.01169 12.7223 6.02618 13.5521ZM7.5 6L6 10.5H18L16.5 6H7.5Z" fill="#6E6E6E"/>
<path fill-rule="evenodd" clip-rule="evenodd" d="M17 14L23 17.5L17 21V14Z" fill="#6E6E6E"/>
</svg>
