<?xml version="1.0" encoding="UTF-8"?>
<svg width="16px" height="16px" viewBox="0 0 16 16" version="1.1" xmlns="http://www.w3.org/2000/svg" xmlns:xlink="http://www.w3.org/1999/xlink">
    <!-- Generator: Sketch 51.2 (57519) - http://www.bohemiancoding.com/sketch -->
    <title>ERROR</title>
    <desc>Created with Sketch.</desc>
    <defs></defs>
    <g id="ERROR" stroke="none" stroke-width="1" fill="none" fill-rule="evenodd">
        <g id="add-connection" transform="translate(8.000000, 8.000000) rotate(135.000000) translate(-8.000000, -8.000000) ">
            <rect id="Rectangle-path" x="0" y="0" width="16" height="16"></rect>
            <path d="M9,7 L9,3 L7,3 L7,7 L3,7 L3,9 L7,9 L7,13 L9,13 L9,9 L13,9 L13,7 L9,7 Z M8,15 C4.13400675,15 1,11.8659932 1,8 C1,4.13400675 4.13400675,1 8,1 C11.8659932,1 15,4.13400675 15,8 C15,11.8659932 11.8659932,15 8,15 Z" id="Shape" fill="#D04455"></path>
        </g>
    </g>
</svg>