<?xml version="1.0" encoding="UTF-8"?>
<svg width="32px" height="32px" viewBox="0 0 32 32" version="1.1" xmlns="http://www.w3.org/2000/svg" xmlns:xlink="http://www.w3.org/1999/xlink">
    <!-- Generator: Sketch 51.2 (57519) - http://www.bohemiancoding.com/sketch -->
    <title>ERROR</title>
    <desc>Created with Sketch.</desc>
    <defs></defs>
    <g id="ERROR" stroke="none" stroke-width="1" fill="none" fill-rule="evenodd">
        <g id="add-connection" transform="translate(16.000000, 16.000000) rotate(135.000000) translate(-16.000000, -16.000000) ">
            <rect id="Rectangle-path" x="0" y="0" width="32" height="32"></rect>
            <path d="M18,14 L18,6 L14,6 L14,14 L6,14 L6,18 L14,18 L14,26 L18,26 L18,18 L26,18 L26,14 L18,14 Z M16,30 C8.2680135,30 2,23.7319864 2,16 C2,8.2680135 8.2680135,2 16,2 C23.7319864,2 30,8.2680135 30,16 C30,23.7319864 23.7319864,30 16,30 Z" id="Shape" fill="#D04455"></path>
        </g>
    </g>
</svg>
