<svg width="24" height="24" viewBox="0 0 24 24" fill="none" xmlns="http://www.w3.org/2000/svg">
<path fill-rule="evenodd" clip-rule="evenodd" d="M4 5.2198V5.08679C4 3.33167 5.50008 1.95139 7.24914 2.09715L17.2491 2.93048C18.804 3.06006 20 4.35985 20 5.92012V18C20 19.3871 19.0586 20.5543 17.7799 20.8976C17.9214 20.5502 18 20.1685 18 19.7652V6.8198C18 5.38975 16.9906 4.15851 15.5883 3.87806L7.58835 2.27806C5.73197 1.90678 4 3.32666 4 5.2198Z" fill="#00BEA4"/>
<path d="M5 5.2198L5 18.0652C5 19.0095 5.66055 19.8252 6.58428 20.0215L14.5843 21.7215C15.8284 21.9859 17 21.0371 17 19.7652V6.8198C17 5.86644 16.3271 5.04561 15.3922 4.85864L7.39223 3.25864C6.15465 3.01113 5 3.95771 5 5.2198Z" stroke="#00BEA4" stroke-width="2"/>
<rect x="8" y="11" width="6" height="2" fill="#00BEA4"/>
<rect x="8" y="14" width="4" height="2" fill="#00BEA4"/>
<rect x="8" y="8" width="6" height="2" fill="#00BEA4"/>
</svg>
