<?xml version="1.0" encoding="UTF-8"?>
<svg width="56px" height="56px" viewBox="0 0 56 56" version="1.1" xmlns="http://www.w3.org/2000/svg" xmlns:xlink="http://www.w3.org/1999/xlink">
    <!-- Generator: Sketch 42 (36781) - http://www.bohemiancoding.com/sketch -->
    <title>ic_car</title>
    <desc>Created with Sketch.</desc>
    <defs></defs>
    <g id="Users" stroke="none" stroke-width="1" fill="none" fill-rule="evenodd">
        <g id="ic_car" fill="#687074">
            <g>
                <rect id="Rectangle-3" opacity="0" x="0" y="0" width="56" height="56"></rect>
                <path d="M17.0076233,31.3214556 C16.7212087,31.9379325 16.9920573,32.2088087 17.6084712,31.922365 L29.6051936,25.1815948 C31.0917472,24.4717125 32.13,22.9663256 32.13,21.2087438 C32.13,18.7739714 30.1531169,16.8 27.7201498,16.8 C25.961191,16.8 24.4559581,17.8352452 23.7477046,19.3235076 L17.0076233,31.3214556 L17.0076233,31.3214556 Z" id="Path" transform="translate(24.511666, 24.418334) scale(1, -1) translate(-24.511666, -24.418334) "></path>
                <path d="M44.4912351,44.5015965 C36.2464905,52.7516269 23.3962645,53.523851 14.2662094,46.8494068 L17.6020714,43.5098491 C24.8619278,48.3860704 34.7777155,47.7757642 41.1911591,41.3566519 C48.4821335,34.0610034 48.4852454,21.320864 41.189603,15.093251 L14.7858819,15.093251 C8.31175793,21.320864 7.59759719,31.459418 12.6247288,38.7410546 L9.29042268,41.9980962 C2.47244352,32.8481757 3.18660426,19.8184524 11.4858057,11.5139304 C20.6003018,2.39359112 35.3798508,2.37802207 44.4990147,11.504589 C53.6197345,20.629599 53.6057312,35.3812573 44.4912351,44.5015965 L44.4912351,44.5015965 L44.4912351,44.5015965 Z" id="Path" transform="translate(28.000000, 28.000000) scale(1, -1) translate(-28.000000, -28.000000) "></path>
            </g>
        </g>
    </g>
</svg>
