<svg xmlns="http://www.w3.org/2000/svg" width="48px" height="48px" viewBox="0 0 48 48" fill="#687074">
    <path d="M40.37 21.76l-6.13-3.47L28.52 24l5.71 5.72 6.13-3.47C41.45 25.63 42 24.81 42 24s-.55-1.63-1.63-2.24zM9.42 4.9c2.43 2.43 16.83 16.84 16.83 16.84l5.09-5.09L9.96 4.52c-.14-.08-.28-.15-.41-.2-.34-.14-.6.11-.29.42.05.04.1.1.16.16zm0 38.2l-.16.16c-.31.31-.04.56.29.42.13-.06.27-.12.41-.2l21.39-12.12-5.09-5.09c0-.01-14.41 14.4-16.84 16.83zM24 24L6.76 6.76c-.38-.38-.76-.13-.76.38v33.71c0 .52.38.76.76.38C7.14 40.86 24 24 24 24z"/>
</svg>
