<svg width="24" height="24" viewBox="0 0 24 24" fill="none" xmlns="http://www.w3.org/2000/svg">
<path fill-rule="evenodd" clip-rule="evenodd" d="M17.8293 18H20.2338C22.5657 18 24.006 15.4561 22.8063 13.4565L18.0063 5.45651C17.4641 4.5529 16.4876 4 15.4338 4H15C16.6569 4 18 5.34315 18 7V9.33339L21.0913 14.4855C21.4912 15.152 21.0111 16 20.2338 16H18V17C18 17.3506 17.9398 17.6872 17.8293 18Z" fill="white"/>
<path d="M15 5H3C1.89543 5 1 5.89543 1 7V17C1 18.1046 1.89543 19 3 19H15C16.1046 19 17 18.1046 17 17V7C17 5.89543 16.1046 5 15 5Z" stroke="white" stroke-width="2"/>
<path d="M11 9L8 13L6 10L3 15H15L11 9Z" fill="white"/>
</svg>
