<svg width="20" height="20" viewBox="0 0 20 20" fill="none" xmlns="http://www.w3.org/2000/svg">
<path fill-rule="evenodd" clip-rule="evenodd" d="M15.3901 4.57039C15.4558 4.69781 15.5294 4.84073 15.625 5C15.625 5 17.5 8.75 17.5062 9.10937V10H10.8333V14.3361C8.40667 14.3455 5.625 14.375 5.625 14.375V15.625C5.625 15.625 5.625 16.875 4.375 16.875H3.75C2.5 16.875 2.5 15.625 2.5 15.625V9.10937C2.5 8.75 4.375 5 4.375 5C4.4696 4.84233 4.54291 4.70076 4.60834 4.57443C4.85337 4.10127 4.98776 3.84176 5.71562 3.75H14.2906C15.0144 3.8413 15.1479 4.10041 15.3901 4.57039ZM5.02182 11.2934C5.03389 11.985 5.60188 12.5335 6.29344 12.5214C6.985 12.5094 7.53351 11.9414 7.52143 11.2498C7.50936 10.5583 6.94137 10.0097 6.24981 10.0218C5.55825 10.0339 5.00974 10.6019 5.02182 11.2934ZM6.25 5L5 8.75H15L13.75 5H6.25Z" fill="#687074"/>
<path fill-rule="evenodd" clip-rule="evenodd" d="M14.1667 11.6667L19.1667 14.5833L14.1667 17.5V11.6667Z" fill="#687074"/>
</svg>
