<svg width="24" height="24" viewBox="0 0 24 24" fill="none" xmlns="http://www.w3.org/2000/svg">
<rect x="11" y="10" width="2" height="4" fill="white"/>
<path fill-rule="evenodd" clip-rule="evenodd" d="M3 3L21 3C22.6569 3 24 4.34315 24 6L24 18C24 19.6569 22.6569 21 21 21L3 21C1.34315 21 0 19.6569 0 18L0 6C0 4.34315 1.34314 3 3 3ZM3 5C2.44772 5 2 5.44772 2 6L2 18C2 18.5523 2.44772 19 3 19L11 19L11 16H13L13 19L21 19C21.5523 19 22 18.5523 22 18L22 6C22 5.44772 21.5523 5 21 5L13 5L13 8H11L11 5L3 5Z" fill="white"/>
</svg>
