<svg width="16" height="16" viewBox="0 0 16 16" fill="none" xmlns="http://www.w3.org/2000/svg">
<g clip-path="url(#clip0_3353_1904)">
<path fill-rule="evenodd" clip-rule="evenodd" d="M7.51569 8.5C7.79183 8.5 8.01569 8.72386 8.01569 9V10.9191C8.01569 11.328 7.58542 11.5939 7.21972 11.411L6.12813 10.8652C5.87605 10.7392 5.56956 10.8206 5.41322 11.0551C5.26545 11.2767 5.29468 11.5719 5.48304 11.7602L7.99056 14.2678C8.4594 14.7366 9.09529 15 9.75833 15H12.5157C13.8964 15 15.0157 13.8807 15.0157 12.5V10C15.0157 9.72386 15.2395 9.5 15.5157 9.5C15.7918 9.5 16.0157 9.72386 16.0157 10V12.5C16.0157 14.433 14.4487 16 12.5157 16H9.75833C8.83007 16 7.93983 15.6313 7.28346 14.9749L4.77594 12.4674C4.25051 11.9419 4.16899 11.1187 4.58117 10.5004C5.01725 9.84627 5.87218 9.61923 6.57534 9.97081L7.01569 10.191V9C7.01569 8.72386 7.23955 8.5 7.51569 8.5Z" fill="white"/>
<path fill-rule="evenodd" clip-rule="evenodd" d="M10.1214 4.66715C10.0457 4.77223 10.0156 4.91334 10.0156 5V8C10.0156 8.27614 9.79177 8.5 9.51562 8.5C9.23948 8.5 9.01562 8.27614 9.01562 8V5C9.01562 4.75332 9.08552 4.39443 9.30986 4.08285C9.55256 3.74577 9.95266 3.5 10.5156 3.5C11.0786 3.5 11.4787 3.74577 11.7214 4.08285C11.9457 4.39443 12.0156 4.75332 12.0156 5V8C12.0156 8.27614 11.7918 8.5 11.5156 8.5C11.2395 8.5 11.0156 8.27614 11.0156 8V5C11.0156 4.91334 10.9855 4.77223 10.9099 4.66715C10.8526 4.58757 10.7527 4.5 10.5156 4.5C10.2786 4.5 10.1787 4.58757 10.1214 4.66715Z" fill="white"/>
<path fill-rule="evenodd" clip-rule="evenodd" d="M12.1214 5.66715C12.0457 5.77223 12.0156 5.91334 12.0156 6V9C12.0156 9.27614 11.7918 9.5 11.5156 9.5C11.2395 9.5 11.0156 9.27614 11.0156 9V6C11.0156 5.75332 11.0855 5.39443 11.3099 5.08285C11.5526 4.74577 11.9527 4.5 12.5156 4.5C13.0786 4.5 13.4787 4.74577 13.7214 5.08285C13.9457 5.39443 14.0156 5.75332 14.0156 6V9C14.0156 9.27614 13.7918 9.5 13.5156 9.5C13.2395 9.5 13.0156 9.27614 13.0156 9V6C13.0156 5.91334 12.9855 5.77223 12.9099 5.66715C12.8526 5.58757 12.7527 5.5 12.5156 5.5C12.2786 5.5 12.1787 5.58757 12.1214 5.66715Z" fill="white"/>
<path fill-rule="evenodd" clip-rule="evenodd" d="M14.1214 6.66715C14.0457 6.77223 14.0156 6.91334 14.0156 7V9.5C14.0156 9.77614 13.7918 10 13.5156 10C13.2395 10 13.0156 9.77614 13.0156 9.5V7C13.0156 6.75332 13.0855 6.39443 13.3099 6.08285C13.5526 5.74577 13.9527 5.5 14.5156 5.5C15.0786 5.5 15.4787 5.74577 15.7214 6.08285C15.9457 6.39443 16.0156 6.75332 16.0156 7V10C16.0156 10.2761 15.7918 10.5 15.5156 10.5C15.2395 10.5 15.0156 10.2761 15.0156 10V7C15.0156 6.91334 14.9855 6.77223 14.9099 6.66715C14.8526 6.58757 14.7527 6.5 14.5156 6.5C14.2786 6.5 14.1787 6.58757 14.1214 6.66715Z" fill="white"/>
<path fill-rule="evenodd" clip-rule="evenodd" d="M8.12139 5.66715C8.04573 5.77223 8.01562 5.91334 8.01562 6V9C8.01562 9.27614 7.79177 9.5 7.51562 9.5C7.23948 9.5 7.01562 9.27614 7.01562 9V6C7.01562 5.75332 7.08552 5.39443 7.30986 5.08285C7.55256 4.74577 7.95266 4.5 8.51562 4.5C9.07859 4.5 9.47869 4.74577 9.72139 5.08285C9.94573 5.39443 10.0156 5.75332 10.0156 6V9C10.0156 9.27614 9.79177 9.5 9.51562 9.5C9.23948 9.5 9.01562 9.27614 9.01562 9V6C9.01562 5.91334 8.98552 5.77223 8.90986 5.66715C8.85256 5.58757 8.75267 5.5 8.51562 5.5C8.27859 5.5 8.17869 5.58757 8.12139 5.66715Z" fill="white"/>
<path fill-rule="evenodd" clip-rule="evenodd" d="M11.3178 3C10.3675 2.36815 9.22674 2 8 2C4.68629 2 2 4.68629 2 8C2 9.777 2.7725 11.3736 4 12.4722V13.7453C2.18652 12.4804 1 10.3787 1 8C1 4.13401 4.13401 1 8 1C9.9073 1 11.6364 1.76281 12.899 3H11.3178Z" fill="white"/>
</g>
<defs>
<clipPath id="clip0_3353_1904">
<rect width="16" height="16" fill="white"/>
</clipPath>
</defs>
</svg>
