<svg width="24" height="24" viewBox="0 0 24 24" fill="none" xmlns="http://www.w3.org/2000/svg">
<g clip-path="url(#clip0_560_1425)">
<path fill-rule="evenodd" clip-rule="evenodd" d="M7 0H17V3.47902C17.7404 3.90696 18.4376 4.43764 19.0711 5.07107C19.3674 5.36744 19.6413 5.67779 19.8927 6H17.1266C13.9836 3.37046 9.29621 3.53222 6.34315 6.48528C3.21895 9.60948 3.21895 14.6748 6.34315 17.799C7.90524 19.3611 9.95262 20.1421 12 20.1421V24L7 24L7 20.8053C6.25962 20.3773 5.56236 19.8466 4.92893 19.2132C1.02369 15.308 1.02369 8.97631 4.92893 5.07107C5.56236 4.43764 6.25962 3.90696 7 3.47901L7 0Z" fill="white"/>
<path d="M21.9167 10.9792V18.8333C21.9167 20.025 20.9417 21 19.75 21H15.7958C15.2108 21 14.6583 20.7671 14.2521 20.3554L10 16.0329C10 16.0329 10.6825 15.3667 10.7042 15.3558C10.8233 15.2529 10.9696 15.1988 11.1321 15.1988C11.2513 15.1988 11.3596 15.2313 11.4571 15.2854C11.4788 15.2908 13.7917 16.6179 13.7917 16.6179V10.1667C13.7917 9.71708 14.1546 9.35417 14.6042 9.35417C15.0538 9.35417 15.4167 9.71708 15.4167 10.1667V13.9583H15.9583V8.8125C15.9583 8.36292 16.3213 8 16.7708 8C17.2204 8 17.5833 8.36292 17.5833 8.8125V13.9583H18.125V9.35417C18.125 8.90458 18.4879 8.54167 18.9375 8.54167C19.3871 8.54167 19.75 8.90458 19.75 9.35417V13.9583H20.2917V10.9792C20.2917 10.5296 20.6546 10.1667 21.1042 10.1667C21.5538 10.1667 21.9167 10.5296 21.9167 10.9792Z" fill="white"/>
</g>
<defs>
<clipPath id="clip0_560_1425">
<rect width="24" height="24" fill="white"/>
</clipPath>
</defs>
</svg>
