<svg width="24" height="24" viewBox="0 0 24 24" fill="none" xmlns="http://www.w3.org/2000/svg">
<path d="M0 4C0 3.44772 0.447715 3 1 3H2V5H0V4Z" fill="white"/>
<path d="M0 19H2V21H1C0.447715 21 0 20.5523 0 20V19Z" fill="white"/>
<rect y="15" width="2" height="2" fill="white"/>
<rect y="11" width="2" height="2" fill="white"/>
<rect y="7" width="2" height="2" fill="white"/>
<rect x="3" y="19" width="3" height="2" fill="white"/>
<rect x="3" y="3" width="3" height="2" fill="white"/>
<rect x="8" y="19" width="3" height="2" fill="white"/>
<path fill-rule="evenodd" clip-rule="evenodd" d="M9.5 20.6667V21H11.5H21C22.6569 21 24 19.6569 24 18V6C24 4.34315 22.6569 3 21 3H16V5H21C21.5523 5 22 5.44772 22 6V16C22 14.8954 19.9853 14 17.5 14C16.974 14 16.4692 14.0401 16 14.1138V18.8C16 19.3523 15.5562 19.8592 15.0088 19.9322L9.5 20.6667ZM16 12.5002C16.4178 12.814 16.9372 13 17.5 13C18.8807 13 20 11.8807 20 10.5C20 9.11929 18.8807 8 17.5 8C16.9372 8 16.4178 8.18597 16 8.49982V12.5002Z" fill="white"/>
<path d="M8.99123 19.8678V3.8901L16.0088 3.11034L16.0088 18.9322L8.99123 19.8678Z" stroke="white" stroke-width="2"/>
</svg>
