<svg width="16" height="16" viewBox="0 0 16 16" fill="none" xmlns="http://www.w3.org/2000/svg">
<path d="M4.75193 2.5659C4.99169 2.4289 5.29712 2.5122 5.43412 2.75196C5.57113 2.99172 5.48783 3.29715 5.24807 3.43415L4.75193 2.5659ZM1.5 8.5H2H1.5ZM5.62127 13.0149C5.88917 13.0819 6.05205 13.3534 5.98507 13.6213C5.9181 13.8892 5.64663 14.052 5.37873 13.9851L5.62127 13.0149ZM2.5 3C2.22386 3 2 2.77614 2 2.5C2 2.22386 2.22386 2 2.5 2L2.5 3ZM5.5 2.5L5.5 2L6 2L6 2.5L5.5 2.5ZM6 5.5C6 5.77614 5.77614 6 5.5 6C5.22386 6 5 5.77614 5 5.5L6 5.5ZM5 3.00003C5.24807 3.43415 5.24821 3.43407 5.24835 3.43399C5.24837 3.43397 5.2485 3.43391 5.24855 3.43387C5.24866 3.43381 5.24871 3.43378 5.24872 3.43378C5.24872 3.43378 5.24852 3.43389 5.24812 3.43413C5.2473 3.4346 5.24567 3.43554 5.24325 3.43697C5.23841 3.43981 5.2304 3.44456 5.21944 3.45119C5.19751 3.46445 5.1638 3.48523 5.11999 3.51339C5.03231 3.56975 4.90454 3.65547 4.75005 3.7695C4.44031 3.99811 4.02734 4.33745 3.61553 4.77867C2.78723 5.66613 2 6.92482 2 8.5L1 8.5C1 6.57518 1.96277 5.08388 2.88447 4.09635C3.34766 3.60008 3.80969 3.22068 4.1562 2.96492C4.32984 2.83676 4.47551 2.73889 4.57923 2.67221C4.63113 2.63885 4.67261 2.61324 4.70195 2.5955C4.71663 2.58662 4.72827 2.57971 4.73667 2.57477C4.74087 2.57231 4.74426 2.57033 4.74681 2.56885C4.74809 2.56811 4.74916 2.5675 4.75001 2.56701C4.75044 2.56676 4.75081 2.56655 4.75113 2.56636C4.75129 2.56627 4.75149 2.56616 4.75157 2.56611C4.75176 2.566 4.75193 2.5659 5 3.00003ZM2 8.5C2 10.3036 2.89099 11.4182 3.8 12.1C4.25861 12.444 4.71985 12.6749 5.06731 12.8197C5.24038 12.8918 5.38336 12.9418 5.48113 12.9732C5.52996 12.9889 5.56735 12.9999 5.59138 13.0067C5.60339 13.0101 5.61205 13.0125 5.61712 13.0138C5.61965 13.0145 5.62128 13.0149 5.62198 13.0151C5.62233 13.0152 5.62245 13.0152 5.62234 13.0152C5.62228 13.0152 5.62216 13.0152 5.62198 13.0151C5.62189 13.0151 5.62171 13.015 5.62167 13.015C5.62148 13.015 5.62127 13.0149 5.5 13.5C5.37873 13.9851 5.3785 13.985 5.37824 13.9849C5.37814 13.9849 5.37787 13.9849 5.37766 13.9848C5.37724 13.9847 5.37675 13.9846 5.37621 13.9844C5.37512 13.9842 5.37379 13.9838 5.37222 13.9834C5.36908 13.9826 5.36497 13.9815 5.35994 13.9802C5.34987 13.9775 5.33606 13.9738 5.31878 13.9689C5.28422 13.9591 5.23567 13.9447 5.17512 13.9252C5.05414 13.8863 4.88463 13.8269 4.68269 13.7428C4.28015 13.5751 3.7414 13.306 3.2 12.9C2.10901 12.0818 1 10.6964 1 8.5H2ZM2.5 2L5.5 2L5.5 3L2.5 3L2.5 2ZM6 2.5L6 5.5L5 5.5L5 2.5L6 2.5Z" fill="white"/>
<path d="M14.5 3V13C14.5 13.2761 14.2761 13.5 14 13.5H8C7.72386 13.5 7.5 13.2761 7.5 13V3C7.5 2.72386 7.72386 2.5 8 2.5H14C14.2761 2.5 14.5 2.72386 14.5 3Z" stroke="white" stroke-linecap="round"/>
<rect x="10" y="4" width="2" height="1" rx="0.5" fill="white"/>
</svg>
