<svg width="16" height="16" viewBox="0 0 16 16" fill="none" xmlns="http://www.w3.org/2000/svg">
<path d="M11.2481 2.5659C11.0083 2.4289 10.7029 2.5122 10.5659 2.75196C10.4289 2.99172 10.5122 3.29715 10.7519 3.43415L11.2481 2.5659ZM14.5 8.5H14H14.5ZM10.3787 13.0149C10.1108 13.0819 9.94795 13.3534 10.0149 13.6213C10.0819 13.8892 10.3534 14.052 10.6213 13.9851L10.3787 13.0149ZM13.5 3C13.7761 3 14 2.77614 14 2.5C14 2.22386 13.7761 2 13.5 2L13.5 3ZM10.5 2.5L10.5 2L10 2L10 2.5L10.5 2.5ZM10 5.5C10 5.77614 10.2239 6 10.5 6C10.7761 6 11 5.77614 11 5.5L10 5.5ZM11 3.00003C10.7519 3.43415 10.7518 3.43407 10.7517 3.43399C10.7516 3.43397 10.7515 3.43391 10.7515 3.43387C10.7513 3.43381 10.7513 3.43378 10.7513 3.43378C10.7513 3.43378 10.7515 3.43389 10.7519 3.43413C10.7527 3.4346 10.7543 3.43554 10.7567 3.43697C10.7616 3.43981 10.7696 3.44456 10.7806 3.45119C10.8025 3.46445 10.8362 3.48523 10.88 3.51339C10.9677 3.56975 11.0955 3.65547 11.25 3.7695C11.5597 3.99811 11.9727 4.33745 12.3845 4.77867C13.2128 5.66613 14 6.92482 14 8.5L15 8.5C15 6.57518 14.0372 5.08388 13.1155 4.09635C12.6523 3.60008 12.1903 3.22068 11.8438 2.96492C11.6702 2.83676 11.5245 2.73889 11.4208 2.67221C11.3689 2.63885 11.3274 2.61324 11.298 2.5955C11.2834 2.58662 11.2717 2.57971 11.2633 2.57477C11.2591 2.57231 11.2557 2.57033 11.2532 2.56885C11.2519 2.56811 11.2508 2.5675 11.25 2.56701C11.2496 2.56676 11.2492 2.56655 11.2489 2.56636C11.2487 2.56627 11.2485 2.56616 11.2484 2.56611C11.2482 2.566 11.2481 2.5659 11 3.00003ZM14 8.5C14 10.3036 13.109 11.4182 12.2 12.1C11.7414 12.444 11.2801 12.6749 10.9327 12.8197C10.7596 12.8918 10.6166 12.9418 10.5189 12.9732C10.47 12.9889 10.4327 12.9999 10.4086 13.0067C10.3966 13.0101 10.388 13.0125 10.3829 13.0138C10.3804 13.0145 10.3787 13.0149 10.378 13.0151C10.3777 13.0152 10.3775 13.0152 10.3777 13.0152C10.3777 13.0152 10.3778 13.0152 10.378 13.0151C10.3781 13.0151 10.3783 13.015 10.3783 13.015C10.3785 13.015 10.3787 13.0149 10.5 13.5C10.6213 13.9851 10.6215 13.985 10.6218 13.9849C10.6219 13.9849 10.6221 13.9849 10.6223 13.9848C10.6228 13.9847 10.6232 13.9846 10.6238 13.9844C10.6249 13.9842 10.6262 13.9838 10.6278 13.9834C10.6309 13.9826 10.635 13.9815 10.6401 13.9802C10.6501 13.9775 10.6639 13.9738 10.6812 13.9689C10.7158 13.9591 10.7643 13.9447 10.8249 13.9252C10.9459 13.8863 11.1154 13.8269 11.3173 13.7428C11.7198 13.5751 12.2586 13.306 12.8 12.9C13.891 12.0818 15 10.6964 15 8.5H14ZM13.5 2L10.5 2L10.5 3L13.5 3L13.5 2ZM10 2.5L10 5.5L11 5.5L11 2.5L10 2.5Z" fill="white"/>
<path d="M8.5 3V13C8.5 13.2761 8.27614 13.5 8 13.5H2C1.72386 13.5 1.5 13.2761 1.5 13V3C1.5 2.72386 1.72386 2.5 2 2.5H8C8.27614 2.5 8.5 2.72386 8.5 3Z" stroke="white" stroke-linecap="round"/>
<rect x="4" y="4" width="2" height="1" rx="0.5" fill="white"/>
</svg>
