<svg width="24" height="24" viewBox="0 0 24 24" fill="none" xmlns="http://www.w3.org/2000/svg">
<g clip-path="url(#clip0_560_1433)">
<path d="M15.2784 2.06401C11.8701 0.847782 7.97397 1.43468 5.06069 3.83884L4.00003 2.77818C8.71643 -1.21697 15.7804 -0.997766 20.2281 3.44994L20.6736 3.93784L15.2855 3.93784L15.2784 2.06401Z" fill="white"/>
<path d="M9.41644 21.6308C12.8247 22.847 16.7209 22.2601 19.6341 19.856L20.6948 20.9166C15.9784 24.9118 8.91439 24.6926 4.46669 20.2449L4.02121 19.757L9.40937 19.757L9.41644 21.6308Z" fill="white"/>
<path fill-rule="evenodd" clip-rule="evenodd" d="M12.942 4.42271C12.1657 3.63697 10.8993 3.62933 10.1136 4.40565L4.42271 10.0283C3.63697 10.8046 3.62933 12.0709 4.40565 12.8566C5.00308 13.4613 5.89071 13.6052 6.62618 13.2856C6.97278 16.2696 9.5088 18.5858 12.5858 18.5858C15.8995 18.5858 18.5858 15.8995 18.5858 12.5858C18.5858 9.53112 16.3031 7.00959 13.3504 6.63407C13.6708 5.90523 13.5356 5.0235 12.942 4.42271ZM8.78232 11.344L11.3899 8.76764C11.7676 8.64949 12.1692 8.58581 12.5858 8.58581C14.7949 8.58581 16.5858 10.3767 16.5858 12.5858C16.5858 14.795 14.7949 16.5858 12.5858 16.5858C10.3767 16.5858 8.58581 14.795 8.58581 12.5858C8.58581 12.1523 8.65477 11.7349 8.78232 11.344Z" fill="white"/>
</g>
<defs>
<clipPath id="clip0_560_1433">
<rect width="24" height="24" fill="white"/>
</clipPath>
</defs>
</svg>
