<svg width="24" height="24" viewBox="0 0 24 24" fill="none" xmlns="http://www.w3.org/2000/svg">
<g clip-path="url(#clip0_419:797)">
<path fill-rule="evenodd" clip-rule="evenodd" d="M18 1.41421L18.7071 0.707107C19.0977 0.316582 19.7308 0.316583 20.1214 0.707107L22.9498 3.53553C23.3403 3.92606 23.3403 4.55922 22.9498 4.94975L22.2427 5.65685L18 1.41421ZM6.34315 17.799C9.46735 20.9232 14.5327 20.9232 17.6569 17.799C20.7811 14.6748 20.7811 9.60947 17.6569 6.48527C14.5327 3.36108 9.46735 3.36108 6.34315 6.48527C3.21896 9.60947 3.21896 14.6748 6.34315 17.799ZM4.92894 19.2132C8.83418 23.1184 15.1658 23.1184 19.0711 19.2132C20.2886 17.9956 21.1266 16.5422 21.5849 15L23 15C23.5523 15 24 14.5523 24 14L24 10C24 9.44772 23.5523 9 23 9L21.4958 9C21.0218 7.56369 20.2136 6.21354 19.0711 5.07106C15.1658 1.16582 8.83418 1.16582 4.92894 5.07106C1.0237 8.9763 1.0237 15.308 4.92894 19.2132Z" fill="white"/>
<path d="M14.9824 16H9.13476V14.8398L11.8945 11.8984C12.2734 11.4844 12.5527 11.123 12.7324 10.8145C12.916 10.5059 13.0078 10.2129 13.0078 9.93555C13.0078 9.55664 12.9121 9.25977 12.7207 9.04492C12.5293 8.82617 12.2559 8.7168 11.9004 8.7168C11.5176 8.7168 11.2148 8.84961 10.9922 9.11523C10.7734 9.37695 10.6641 9.72266 10.6641 10.1523H8.96484C8.96484 9.63281 9.08789 9.1582 9.33398 8.72852C9.58398 8.29883 9.93555 7.96289 10.3887 7.7207C10.8418 7.47461 11.3555 7.35156 11.9297 7.35156C12.8086 7.35156 13.4902 7.5625 13.9746 7.98438C14.4629 8.40625 14.707 9.00195 14.707 9.77148C14.707 10.1934 14.5977 10.623 14.3789 11.0605C14.1602 11.498 13.7852 12.0078 13.2539 12.5898L11.3145 14.6348H14.9824V16Z" fill="white"/>
</g>
<defs>
<clipPath id="clip0_419:797">
<rect width="24" height="24" fill="white"/>
</clipPath>
</defs>
</svg>
