<svg width="24" height="24" viewBox="0 0 24 24" fill="none" xmlns="http://www.w3.org/2000/svg">
<g clip-path="url(#clip0_419:791)">
<path fill-rule="evenodd" clip-rule="evenodd" d="M18 1.41421L18.7071 0.707107C19.0977 0.316582 19.7308 0.316583 20.1214 0.707107L22.9498 3.53553C23.3403 3.92606 23.3403 4.55922 22.9498 4.94975L22.2427 5.65685L18 1.41421ZM6.34315 17.799C9.46735 20.9232 14.5327 20.9232 17.6569 17.799C20.7811 14.6748 20.7811 9.60947 17.6569 6.48527C14.5327 3.36108 9.46735 3.36108 6.34315 6.48527C3.21896 9.60947 3.21896 14.6748 6.34315 17.799ZM4.92894 19.2132C8.83418 23.1184 15.1658 23.1184 19.0711 19.2132C20.2886 17.9956 21.1266 16.5422 21.5849 15L23 15C23.5523 15 24 14.5523 24 14L24 10C24 9.44772 23.5523 9 23 9L21.4958 9C21.0218 7.56369 20.2136 6.21354 19.0711 5.07106C15.1658 1.16582 8.83418 1.16582 4.92894 5.07106C1.0237 8.9763 1.0237 15.308 4.92894 19.2132Z" fill="white"/>
<path d="M13.248 16H11.5547V9.47266L9.5332 10.0996V8.72266L13.0664 7.45703H13.248V16Z" fill="white"/>
</g>
<defs>
<clipPath id="clip0_419:791">
<rect width="24" height="24" fill="white"/>
</clipPath>
</defs>
</svg>
