<?xml version="1.0" encoding="UTF-8" standalone="no"?>
<svg width="48px" height="48px" viewBox="0 0 48 48" version="1.1" xmlns="http://www.w3.org/2000/svg" xmlns:xlink="http://www.w3.org/1999/xlink" xmlns:sketch="http://www.bohemiancoding.com/sketch/ns">
    <!-- Generator: Sketch 3.3.2 (12043) - http://www.bohemiancoding.com/sketch -->
    <title>Virtual_Sensors</title>
    <desc>Created with Sketch.</desc>
    <defs></defs>
    <g id="Page-1" stroke="none" stroke-width="1" fill="none" fill-rule="evenodd" sketch:type="MSPage">
        <g id="Virtual_Sensors" sketch:type="MSArtboardGroup">
            <g id="Group-Copy-21" sketch:type="MSLayerGroup">
                <rect id="Rectangle-807" sketch:type="MSShapeGroup" x="0" y="0" width="48" height="48"></rect>
                <g id="Shape-6-+-Shape-7-+-Shape-9-Copy-5" transform="translate(2.400000, 3.400000)" fill="#617d8a" sketch:type="MSShapeGroup">
                    <path d="M10.3,5.41612903 C16.83,8.41612903 21.52,14.5612903 22.23,21.8387097 L25.23,21.8387097 C24.21,9.91612903 13.91,0.548387097 1.33,0.548387097 C0.88,0.548387097 0.45,0.587096774 0,0.616129032 L7.63,8 L10.3,5.41612903 L10.3,5.41612903 Z" id="Shape-8" transform="translate(12.615000, 11.193548) scale(-1, 1) translate(-12.615000, -11.193548) "></path>
                </g>
                <g id="Shape-6-+-Shape-7-+-Shape-9-Copy-6" transform="translate(33.100000, 33.503030) scale(-1, -1) translate(-33.100000, -33.503030) translate(19.600000, 22.503030)" fill="#617d8a" sketch:type="MSShapeGroup">
                    <path d="M11.3,5.41612903 C17.83,8.41612903 22.52,14.5612903 23.23,21.8387097 L26.23,21.8387097 C25.21,9.91612903 14.91,0.548387097 2.33,0.548387097 C1.88,0.548387097 1.45,0.587096774 1,0.616129032 L8.63,8 L11.3,5.41612903 L11.3,5.41612903 Z" id="Shape-8" transform="translate(13.615000, 11.193548) scale(-1, 1) translate(-13.615000, -11.193548) "></path>
                </g>
                <ellipse id="Oval-166" fill="#617d8a" sketch:type="MSShapeGroup" cx="24" cy="24" rx="7.2" ry="7.2"></ellipse>
            </g>
        </g>
    </g>
</svg>
