<svg width="16" height="16" viewBox="0 0 16 16" fill="none" xmlns="http://www.w3.org/2000/svg">
<path fill-rule="evenodd" clip-rule="evenodd" d="M6 12.382V12.5C6 13.3284 6.67157 14 7.5 14H12.5C13.3284 14 14 13.3284 14 12.5V3.5C14 2.67157 13.3284 2 12.5 2H8.78723C8.9191 2.16681 9 2.37899 9 2.61803V3H12.5C12.7761 3 13 3.22386 13 3.5V12.5C13 12.7761 12.7761 13 12.5 13H8L7.5 13.25L7.44721 13.2764C6.78231 13.6088 6 13.1253 6 12.382Z" fill="#617D8A"/>
<path d="M8.05279 1.72361L7.05279 2.22361C6.714 2.393 6.5 2.73926 6.5 3.11803V12.382C6.5 13.1253 7.28231 13.6088 7.94721 13.2764L8 13.25L8.94721 12.7764C9.286 12.607 9.5 12.2607 9.5 11.882V2.61803C9.5 1.87465 8.71769 1.39116 8.05279 1.72361Z" stroke="#617D8A" stroke-linecap="round"/>
<path fill-rule="evenodd" clip-rule="evenodd" d="M2.5 5C2.22386 5 2 4.77614 2 4.5V3C2 2.44772 2.44772 2 3 2H3.5C3.77614 2 4 2.22386 4 2.5C4 2.77614 3.77614 3 3.5 3H3V4.5C3 4.77614 2.77614 5 2.5 5ZM2.5 11C2.22386 11 2 11.2239 2 11.5V13C2 13.5523 2.44772 14 3 14H3.5C3.77614 14 4 13.7761 4 13.5C4 13.2239 3.77614 13 3.5 13H3V11.5C3 11.2239 2.77614 11 2.5 11ZM2.5 6C2.22386 6 2 6.22386 2 6.5V9.5C2 9.77614 2.22386 10 2.5 10C2.77614 10 3 9.77614 3 9.5V6.5C3 6.22386 2.77614 6 2.5 6Z" fill="#617D8A"/>
</svg>
