<svg width="16" height="16" viewBox="0 0 16 16" fill="none" xmlns="http://www.w3.org/2000/svg">
<path fill-rule="evenodd" clip-rule="evenodd" d="M2.5 3.05554C1.67157 3.05554 1 3.72712 1 4.55554V11.4444C1 12.2729 1.67157 12.9444 2.5 12.9444H11.5C12.1699 12.9444 12.7372 12.5053 12.9298 11.8992H14.1586C14.6449 11.8992 14.9273 11.5757 14.8278 11.1328L13.2706 4.20408C13.1987 3.88392 12.8875 3.60615 12.5601 3.49437C12.2887 3.22322 11.914 3.05554 11.5 3.05554H2.5ZM12 4.54996C11.997 4.27639 11.7743 4.05554 11.5 4.05554H2.5C2.22386 4.05554 2 4.2794 2 4.55554V11.4444C2 11.7206 2.22386 11.9444 2.5 11.9444H11.5C11.7743 11.9444 11.997 11.7236 12 11.45V4.54996Z" fill="#617D8A"/>
</svg>
