<svg width="16" height="16" viewBox="0 0 16 16" fill="none" xmlns="http://www.w3.org/2000/svg">
<path d="M12.5 2.5H3.5C2.94772 2.5 2.5 2.94771 2.5 3.5V12.5C2.5 13.0523 2.94771 13.5 3.5 13.5H12.5C13.0523 13.5 13.5 13.0523 13.5 12.5V3.5C13.5 2.94772 13.0523 2.5 12.5 2.5Z" stroke="#617D8A" stroke-linecap="round"/>
<path fill-rule="evenodd" clip-rule="evenodd" d="M3 3H8V13H3V3ZM5 6C5.55228 6 6 5.55228 6 5C6 4.44772 5.55228 4 5 4C4.44772 4 4 4.44772 4 5C4 5.55228 4.44772 6 5 6Z" fill="#617D8A"/>
<circle cx="10.5" cy="5" r="1" fill="#617D8A"/>
</svg>
