<?xml version="1.0" encoding="UTF-8" standalone="no"?>
<svg id="Layer_1" xmlns:rdf="http://www.w3.org/1999/02/22-rdf-syntax-ns#" xmlns="http://www.w3.org/2000/svg" enable-background="new 0 0 64 64" xml:space="preserve" viewBox="0 0 64 64" height="100%" width="100%" version="1.0" y="0px" x="0px" xmlns:cc="http://creativecommons.org/ns#" xmlns:dc="http://purl.org/dc/elements/1.1/"><metadata id="metadata3092"><rdf:RDF><cc:Work rdf:about=""><dc:format>image/svg+xml</dc:format><dc:type rdf:resource="http://purl.org/dc/dcmitype/StillImage"/><dc:title/></cc:Work></rdf:RDF></metadata><g id="g3078" style="opacity:0.12000002;" transform="translate(-0.3725,-0.3725)"><g id="g3080"><path id="path3082" d="m32.372,60.701c-15.62,0-28.327-12.708-28.327-28.328s12.707-28.329,28.327-28.329,28.328,12.708,28.328,28.328-12.708,28.329-28.328,28.329zm0-55.196c-14.814,0-26.866,12.053-26.866,26.867s12.053,26.867,26.866,26.867c14.815,0,26.867-12.053,26.867-26.867,0.001-14.815-12.052-26.867-26.867-26.867z"/></g></g><circle id="circle3084" cy="32.208" cx="5" r="5" fill="#01BEA4"/><path id="path3086" style="fill:#01bea4;" d="m38.1,33.156-0.239,0.891c0.553,0.32,0.743,1.027,0.424,1.58-0.32,0.553-1.027,0.743-1.58,0.424l-0.652,0.652c0.32,0.553,0.13,1.261-0.424,1.58-0.553,0.32-1.261,0.13-1.58-0.424l-0.893,0.24c0,0.639-0.518,1.157-1.157,1.157s-1.157-0.518-1.157-1.157l-0.891-0.239c-0.32,0.553-1.027,0.743-1.58,0.424-0.553-0.32-0.743-1.027-0.424-1.58l-0.652-0.652c-0.552,0.32-1.26,0.13-1.579-0.424-0.32-0.553-0.13-1.261,0.424-1.58l-0.239-0.891c-0.639,0-1.157-0.518-1.157-1.157s0.518-1.157,1.157-1.157l0.239-0.891c-0.553-0.32-0.743-1.027-0.424-1.58,0.32-0.553,1.027-0.743,1.58-0.424l0.652-0.652c-0.32-0.553-0.13-1.261,0.424-1.58,0.553-0.32,1.261-0.13,1.58,0.424l0.891-0.239c0-0.639,0.518-1.157,1.157-1.157s1.157,0.518,1.157,1.157l0.891,0.239c0.32-0.553,1.027-0.743,1.58-0.424,0.553,0.32,0.743,1.027,0.424,1.58l0.652,0.652c0.553-0.32,1.261-0.13,1.58,0.424,0.32,0.553,0.13,1.261-0.424,1.58l0.239,0.891c0.639,0,1.157,0.518,1.157,1.157,0.002,0.638-0.517,1.156-1.156,1.156z"/></svg>
