<?xml version="1.0" encoding="iso-8859-1"?>
<!-- Generator: Adobe Illustrator 18.0.0, SVG Export Plug-In . SVG Version: 6.00 Build 0)  -->
<!DOCTYPE svg PUBLIC "-//W3C//DTD SVG 1.0//EN" "http://www.w3.org/TR/2001/REC-SVG-20010904/DTD/svg10.dtd">
<svg version="1.0" id="Layer_1" xmlns="http://www.w3.org/2000/svg" xmlns:xlink="http://www.w3.org/1999/xlink" x="0px" y="0px"
	 viewBox="0 0 152.378 210.86" enable-background="new 0 0 152.378 210.86" xml:space="preserve">
<path fill="#1F1F20" d="M152.378,142.02c0,38-30.925,68.84-68.935,68.84c-38.02,0-68.945-30.84-68.945-68.84h10.84
	c0,32,25.98,58,58.02,58c32.03,0,58.02-26,58.02-58v-73c0-32-25.99-58-58.02-58c-32.04,0-58.02,26-58.02,58h-10.84
	c0-38,30.82-69.02,68.84-69.02c19,0,36.315,7.79,48.775,20.25c12.45,12.46,20.265,29.77,20.265,48.77V142.02z"/>
<path fill="#2D2D2D" d="M33.667,171.09c0,5.017-4.067,9.083-9.083,9.083H1.667V29.563h22.917c5.017,0,9.083,4.067,9.083,9.083
	V171.09z"/>
<polygon fill="#444444" points="1.667,180.174 0,178.974 0,30.763 1.667,29.563 "/>
<path fill="#444444" d="M37.758,169.762l-4.091,2.078V38.396l4.091,2.078C41.319,89.528,41.718,119.272,37.758,169.762z"/>
</svg>
