<svg width="16" height="16" viewBox="0 0 16 16" fill="none" xmlns="http://www.w3.org/2000/svg">
<path fill-rule="evenodd" clip-rule="evenodd" d="M0.577729 8.01545C0.186655 8.40542 0.186655 9.0377 0.57773 9.42767L0.884818 9.73389C0.990123 9.8389 1.11305 9.91563 1.2441 9.96409C1.24287 10.009 1.24225 10.0541 1.24225 10.0994C1.24225 12.7837 3.4245 14.9599 6.11646 14.9599C8.80841 14.9599 10.9907 12.7837 10.9907 10.0994C10.9907 7.49212 8.93201 5.36434 6.34719 5.24423C6.33741 5.00231 6.23992 4.76326 6.0547 4.57856L5.74761 4.27234C5.35654 3.88237 4.72248 3.88236 4.33141 4.27234L0.577729 8.01545ZM2.25561 9.77648C2.27108 9.76285 2.28623 9.74865 2.30102 9.73389L5.79258 6.25216C5.89936 6.24336 6.00737 6.23888 6.11646 6.23888C8.25878 6.23888 9.99067 7.96993 9.99067 10.0994C9.99067 12.2288 8.25878 13.9599 6.11646 13.9599C3.97413 13.9599 2.24225 12.2288 2.24225 10.0994C2.24225 9.99064 2.24676 9.88296 2.25561 9.77648Z" fill="#617D8A"/>
<path d="M6 2C8.16256 2 10.8658 3.15363 13.0283 6.03769" stroke="#617D8A" stroke-linecap="round"/>
<path d="M6 2C5 2 3.6 2.2 2 3" stroke="#617D8A" stroke-linecap="round"/>
<path d="M13.5001 2.5V6.5H10.477" stroke="#617D8A" stroke-linecap="round"/>
</svg>
