<svg width="16" height="16" viewBox="0 0 16 16" fill="none" xmlns="http://www.w3.org/2000/svg">
<circle cx="8" cy="8" r="6.5" stroke="#617D8A"/>
<path fill-rule="evenodd" clip-rule="evenodd" d="M8.91595 4.72227C8.94866 4.77114 8.97297 4.8261 8.98684 4.88508C8.99667 4.92653 9.00098 4.96851 9.00011 5.01006V11C9.00011 11.2761 8.77625 11.5 8.50011 11.5C8.22397 11.5 8.00011 11.2761 8.00011 11V5.809L6.72372 6.4472C6.47673 6.5707 6.17639 6.47058 6.0529 6.22359C5.9294 5.97661 6.02951 5.67627 6.2765 5.55277L8.26751 4.55727C8.30427 4.53791 8.34374 4.523 8.38521 4.51325C8.44414 4.49929 8.50414 4.49645 8.56245 4.50384C8.70297 4.52162 8.83367 4.59873 8.91595 4.72227Z" fill="#617D8A"/>
<path d="M13 1L15 3" stroke="#617D8A" stroke-linecap="round"/>
<path d="M14 6H15C15.5523 6 16 6.44772 16 7V8C16 8.55228 15.5523 9 15 9H14V6Z" fill="#617D8A"/>
</svg>
