<svg width="24" height="24" viewBox="0 0 24 24" fill="none" xmlns="http://www.w3.org/2000/svg">
<g clip-path="url(#clip0_4:1307)">
<path fill-rule="evenodd" clip-rule="evenodd" d="M18 1.41422L18.7071 0.707114C19.0977 0.31659 19.7308 0.31659 20.1214 0.707114L22.9498 3.53554C23.3403 3.92607 23.3403 4.55923 22.9498 4.94976L22.2427 5.65686L18 1.41422ZM6.34315 17.799C9.46735 20.9232 14.5327 20.9232 17.6569 17.799C20.7811 14.6748 20.7811 9.60948 17.6569 6.48528C14.5327 3.36109 9.46735 3.36109 6.34315 6.48528C3.21896 9.60947 3.21896 14.6748 6.34315 17.799ZM4.92894 19.2132C8.83418 23.1184 15.1658 23.1184 19.0711 19.2132C20.549 17.7353 21.4676 15.9099 21.8269 14L23 14C23.5523 14 24 13.5523 24 13L24 11C24 10.4477 23.5523 10 23 10L21.7691 10C21.3748 8.19369 20.4755 6.47548 19.0711 5.07107C15.1658 1.16582 8.83418 1.16582 4.92894 5.07107C1.0237 8.97631 1.0237 15.308 4.92894 19.2132Z" fill="#617D8A"/>
<path d="M13.248 16H11.5547V9.47266L9.5332 10.0996V8.72266L13.0664 7.45703H13.248V16Z" fill="#617D8A"/>
</g>
<defs>
<clipPath id="clip0_4:1307">
<rect width="24" height="24" fill="white"/>
</clipPath>
</defs>
</svg>
