<svg width="16" height="16" viewBox="0 0 16 16" fill="none" xmlns="http://www.w3.org/2000/svg">
<circle cx="8" cy="8" r="6.5" stroke="#617D8A"/>
<path d="M13 1L15 3" stroke="#617D8A" stroke-linecap="round"/>
<path d="M14 6H15C15.5523 6 16 6.44772 16 7V8C16 8.55228 15.5523 9 15 9H14V6Z" fill="#617D8A"/>
<path d="M6 5.57813C6.39062 4.98438 7 4.5 8 4.5C9.03125 4.5 9.98438 5.125 9.98438 6.26562C9.98438 7.40029 8.51548 8.64318 6.03915 10.5634C6.01471 10.5824 6.00001 10.6118 6.00001 10.6428L6 10.8844C6 10.9396 6.04477 10.9844 6.1 10.9844H10.375" stroke="#617D8A" stroke-linecap="round"/>
</svg>
